# AST/ASF file generated using VICON BodyLanguage
# -----------------------------------------------
:version 1.10
:name VICON
:units
  mass 1.0
  length 0.45
  angle deg
:documentation
   .ast/.asf automatically generated from VICON data using
   VICON BodyBuilder and BodyLanguage model FoxedUp or BRILLIANT.MOD
:root
   order TX TY TZ RX RY RZ
   axis XYZ
   position 0 0 0  
   orientation 0 0 0 
:bonedata
  begin
     id 1 
     name lhipjoint
     direction 0.558404 -0.748506 0.357664 
     length 2.4234 
     axis 0 0 0  XYZ
  end
  begin
     id 2 
     name lfemur
     direction 0.34202 -0.939693 0  
     length 7.14567  
     axis 0 0 20  XYZ
    dof rx ry rz
    limits (-160.0 20.0)
           (-70.0 70.0)
           (-60.0 70.0)
  end
  begin
     id 3 
     name ltibia
     direction 0.34202 -0.939693 0   
     length 8.13956   
     axis 0 0 20   XYZ
    dof rx
    limits (-10.0 170.0)
  end
  begin
     id 4 
     name lfoot
     direction 0.0791314 -0.217412 0.972867   
     length 2.00134   
     axis -90 7.62852e-016 20   XYZ
    dof rx rz
    limits (-45.0 90.0)
           (-70.0 20.0)
  end
  begin
     id 5 
     name ltoes
     direction 1.53547e-011 -4.21922e-011 1   
     length 1.00735   
     axis -90 7.62852e-016 20   XYZ
    dof rx
    limits (-90.0 20.0)
  end
  begin
     id 6 
     name rhipjoint
     direction -0.496392 -0.78327 0.374276   
     length 2.31584  
     axis 0 0 0  XYZ 
  end
  begin
     id 7 
     name rfemur
     direction -0.34202 -0.939693 0   
     length 7.47417   
     axis 0 0 -20   XYZ
    dof rx ry rz
    limits (-160.0 20.0)
           (-70.0 70.0)
           (-70.0 60.0)
  end
  begin
     id 8 
     name rtibia
     direction -0.34202 -0.939693 0   
     length 7.69071   
     axis 0 0 -20   XYZ
    dof rx
    limits (-10.0 170.0)
 end
 begin
     id 9 
     name rfoot
     direction -0.103069 -0.28318 0.953512   
     length 2.16135  
     axis -90 -7.62852e-016 -20   XYZ
    dof rx rz
    limits (-45.0 90.0)
           (-20.0 70.0)
  end
  begin
     id 10 
     name rtoes
     direction -1.53581e-011 -4.21904e-011 1   
     length 1.07867   
     axis -90 -7.62852e-016 -20   XYZ
    dof rx
    limits (-90.0 20.0)
  end
  begin
     id 11 
     name lowerback
     direction -0.0258961 0.994776 -0.0987407   
     length 2.19412   
     axis 0 0 0   XYZ
    dof rx ry rz
    limits (-20.0 45.0)
           (-30.0 30.0)
           (-30.0 30.0)
  end
  begin
     id 12 
     name upperback
     direction 0.0402454 0.999185 0.00320666   
     length 2.18445   
     axis 0 0 0   XYZ
    dof rx ry rz
    limits (-20.0 45.0)
           (-30.0 30.0)
           (-30.0 30.0)
  end
  begin
     id 13 
     name thorax
     direction 0.0519376 0.997415 0.0496558   
     length 2.21487   
     axis 0 0 0   XYZ
    dof rx ry rz
    limits (-20.0 45.0)
           (-30.0 30.0)
           (-30.0 30.0)
  end
  begin
     id 14 
     name lowerneck
     direction -0.0921276 0.983211 0.157506   
     length 1.61201   
     axis 0 0 0   XYZ
    dof rx ry rz
    limits (-20.0 45.0)
           (-30.0 30.0)
           (-30.0 30.0)
  end
  begin
     id 15 
     name upperneck
     direction 0.0820814 0.98162 -0.172292   
     length 1.65275   
     axis 0 0 0   XYZ
    dof rx ry rz
    limits (-20.0 45.0)
           (-30.0 30.0)
           (-30.0 30.0)
  end
  begin
     id 16
     name head
     direction 0.0336554 0.996413 -0.0776455  
     length 1.66415  
     axis 0 0 0   XYZ
    dof rx ry rz
    limits (-20.0 45.0)
           (-30.0 30.0)
           (-30.0 30.0)
  end
  begin
     id 17 
     name lclavicle
     direction 0.94696 0.284418 -0.149576  
     length 3.41447  
     axis 0 0 0   XYZ
    dof ry rz
    limits (-20.0 10.0)
           (0.0 20.0)
  end
  begin
     id 18 
     name lhumerus
     direction 1 -0.000130264 -9.81312e-005   
     length 5.19964   
     axis 180 -30 -90   XYZ
    dof rx ry rz
    limits (-60.0 90.0)
           (-90.0 90.0)
           (-90.0 90.0)
  end
  begin
     id 19
     name lradius
     direction 1 -4.48961e-011 1.43854e-026   
     length 3.32189   
     axis 180 -30 -90   XYZ
    dof rx
    limits (-10.0 170.0)
  end
  begin
     id 20
     name lwrist
     direction 1 -4.48958e-011 3.1502e-026   
     length 1.66095   
     axis -1.97692e-014 90 90   XYZ
    dof ry
    limits (-180.0 0.0)
 end
  begin
     id 21 
     name lhand
     direction 1 -4.48927e-011 6.3004e-026   
     length 0.645616   
     axis -4.02019e-014 90 90   XYZ
    dof rx rz
    limits (-90.0 90.0)
           (-45.0 45.0)
  end
  begin
     id 22 
     name lfingers
     direction 1 -4.4904e-011 1.26008e-025   
     length 0.520512   
     axis -8.04039e-014 90 90   XYZ
    dof rx
    limits (0.0 90.0)
  end
  begin
     id 23
     name lthumb
     direction 0.707107 -6.34947e-011 0.707107   
     length 0.747354   
     axis -90 45 2.85299e-015   XYZ
    dof rx rz
    limits (-45.0 45.0)
           (-45.0 45.0)
  end
  begin
     id 24 
     name rclavicle
     direction -0.909391 0.383475 -0.161107   
     length 3.25176  
     axis 0 0 0   XYZ 
    dof ry rz
    limits (-10.0 20.0)
           (-20.0 0.0)
  end
  begin
     id 25 
     name rhumerus
     direction -1 -4.48965e-011 -1.81384e-027  
     length 5.6595   
     axis 180 30 90   XYZ
    dof rx ry rz
    limits (-90.0 60.0)
           (-90.0 90.0)
           (-90.0 90.0)
  end
  begin
     id 26 
     name rradius
     direction -1 -4.48996e-011 -8.09397e-027   
     length 3.37604   
     axis 180 30 90   XYZ
    dof rx
    limits (-10.0 170.0)
  end
  begin
     id 27 
     name rwrist
     direction -1 -4.48927e-011 -1.56669e-026   
     length 1.68802   
     axis 1.21142e-014 -90 -90   XYZ
    dof ry
    limits (-180.0 0.0)
  end
  begin
     id 28
     name rhand
     direction -1 -4.48912e-011 -3.13339e-026   
     length 0.824702   
     axis 1.99937e-014 -90 -90   XYZ
    dof rx rz
    limits (-90.0 90.0)
           (-45.0 45.0)
  end
  begin
     id 29
     name rfingers
     direction -1 -4.49011e-011 -6.26677e-026   
     length 0.664896   
     axis 3.99874e-014 -90 -90   XYZ
    dof rx
    limits (0.0 90.0)
  end
  begin
     id 30
     name rthumb
     direction -0.707107 -6.34931e-011 0.707107   
     length 0.954662   
     axis -90 -45 -2.85299e-015   XYZ
    dof rx rz
    limits (-45.0 45.0)
           (-45.0 45.0)
  end
:hierarchy
  begin
    root lhipjoint rhipjoint lowerback
    lhipjoint lfemur
    lfemur ltibia
    ltibia lfoot
    lfoot ltoes
    rhipjoint rfemur
    rfemur rtibia
    rtibia rfoot
    rfoot rtoes
    lowerback upperback
    upperback thorax
    thorax lowerneck lclavicle rclavicle
    lowerneck upperneck
    upperneck head
    lclavicle lhumerus
    lhumerus lradius
    lradius lwrist
    lwrist lhand lthumb
    lhand lfingers
    rclavicle rhumerus
    rhumerus rradius
    rradius rwrist
    rwrist rhand rthumb
    rhand rfingers
  end

#!OML:ASF F:\VICON\USERDATA\INSTALL\rory3\rory3.ASF
:FULLY-SPECIFIED
:DEGREES
203
root 10.321 17.6468 -27.2243 18.2705 -36.1388 0.265863
lowerback 10.6503 0.107831 -8.29868
upperback 0.486069 -0.725337 2.58313
thorax -5.3453 -0.123948 7.56962
lowerneck -13.8553 -2.52822 -11.6745
upperneck 20.5401 -3.68502 12.3616
head 9.15067 -1.39622 5.82821
rclavicle 1.5207e-014 -1.8487e-014
rhumerus -31.9101 -9.52521 -75.278
rradius 43.7034
rwrist -15.5768
rhand -11.0219 20.377
rfingers 7.12502
rthumb 14.9994 -9.05971
lclavicle 1.5207e-014 -1.8487e-014
lhumerus -14.2114 17.9771 82.0532
lradius 28.4888
lwrist -6.34548
lhand -6.69053 31.3939
lfingers 7.12502
lthumb 19.1684 60.4692
rfemur -45.1331 -2.13395 15.8114
rtibia 65.3875
rfoot -16.5963 -6.05053
rtoes 8.72377
lfemur -20.0043 -5.53389 -26.3552
ltibia 41.4778
lfoot -20.4107 0.0282336
ltoes -18.8621
204
root 10.2755 17.6317 -27.0473 18.337 -36.5429 -0.0722008
lowerback 10.6593 0.171952 -8.02611
upperback 0.683222 -0.606109 2.55065
thorax -5.16538 -0.0890497 7.35558
lowerneck -17.4543 -2.73269 -10.2541
upperneck 23.7706 -3.91406 10.9665
head 10.9742 -1.44714 5.18177
rclavicle -3.15074e-014 -6.95746e-015
rhumerus -31.897 -9.48177 -75.3701
rradius 43.8108
rwrist -15.6739
rhand -11.2617 20.1427
rfingers 7.12502
rthumb 14.7684 -9.31117
lclavicle -3.15074e-014 -6.95746e-015
lhumerus -13.755 17.8666 82.0599
lradius 28.8465
lwrist -6.18408
lhand -6.25652 31.9376
lfingers 7.12502
lthumb 19.5857 60.9711
rfemur -45.6881 -2.08493 16.2605
rtibia 64.9071
rfoot -17.0394 -6.02581
rtoes 8.15038
lfemur -18.9583 -5.66619 -26.5531
ltibia 40.9729
lfoot -20.3204 0.543633
ltoes -17.5552
205
root 10.2319 17.6122 -26.9174 18.7654 -36.3942 -0.0732257
lowerback 10.6623 0.034336 -8.04182
upperback 0.539761 -0.794164 2.54211
thorax -5.28484 -0.170069 7.38546
lowerneck -14.2869 -2.45588 -11.327
upperneck 20.7845 -3.62658 12.2837
head 9.30043 -1.33811 5.75783
rclavicle -3.50109e-014 -7.8669e-014
rhumerus -32.0487 -9.42776 -75.4308
rradius 43.8114
rwrist -15.8013
rhand -11.29 20.3827
rfingers 7.12502
rthumb 14.7411 -9.07311
lclavicle -3.50109e-014 -7.8669e-014
lhumerus -13.2602 17.8031 81.9345
lradius 28.8976
lwrist -6.35171
lhand -5.7298 32.5675
lfingers 7.12502
lthumb 20.0921 61.5485
rfemur -46.9857 -2.32987 16.6588
rtibia 64.5672
rfoot -17.4299 -6.23436
rtoes 8.41779
lfemur -18.7401 -5.5522 -26.6362
ltibia 40.5921
lfoot -20.2745 0.397832
ltoes -18.2136
206
root 10.1879 17.5858 -26.7746 18.9801 -36.3067 -0.00889747
lowerback 10.6843 -0.0609825 -7.96317
upperback 0.47745 -0.917554 2.48065
thorax -5.34258 -0.22839 7.29294
lowerneck -13.6835 -2.43864 -11.4127
upperneck 20.2767 -3.64189 12.4637
head 9.01848 -1.35088 5.81325
rclavicle 3.18304e-014 5.15349e-014
rhumerus -32.133 -9.67724 -75.4079
rradius 43.6999
rwrist -15.7254
rhand -11.2591 20.4472
rfingers 7.12502
rthumb 14.7708 -9.00651
lclavicle 3.18304e-014 5.15349e-014
lhumerus -12.4822 16.9075 81.7905
lradius 28.5864
lwrist -5.38316
lhand -5.91774 32.7379
lfingers 7.12502
lthumb 19.9114 61.7379
rfemur -48.0906 -2.47636 16.9159
rtibia 64.2587
rfoot -17.9863 -6.79671
rtoes 7.63663
lfemur -18.231 -5.39535 -26.8651
ltibia 40.1772
lfoot -20.3335 0.286879
ltoes -18.2752
207
root 10.1435 17.5585 -26.6256 19.1535 -36.5522 0.0197216
lowerback 10.6834 0.00232107 -8.03462
upperback 0.508243 -0.844195 2.4298
thorax -5.32263 -0.19319 7.26774
lowerneck -13.6516 -2.48346 -11.3895
upperneck 20.0866 -3.70814 12.5177
head 8.95754 -1.37494 5.81358
rclavicle -1.97294e-014 2.36057e-014
rhumerus -32.1745 -9.98569 -75.2706
rradius 43.7034
rwrist -15.6621
rhand -11.1912 20.4291
rfingers 7.12502
rthumb 14.8363 -9.01976
lclavicle -1.97294e-014 2.36057e-014
lhumerus -12.0495 14.286 82.1621
lradius 28.0521
lwrist 1.54432
lhand -14.1749 27.8873
lfingers 7.12502
lthumb 11.9605 57.5256
rfemur -49.1894 -2.36256 17.0638
rtibia 63.9832
rfoot -18.3927 -7.42687
rtoes 6.67038
lfemur -17.6585 -5.27359 -27.2018
ltibia 39.753
lfoot -20.3152 0.175928
ltoes -16.2911
208
root 10.092 17.5336 -26.4794 19.4067 -36.5549 0.134615
lowerback 10.6191 -0.0830332 -8.32067
upperback 0.486383 -0.982584 2.5186
thorax -5.27861 -0.25458 7.54837
lowerneck -13.8325 -2.42244 -11.3593
upperneck 20.1321 -3.58509 12.3902
head 8.98749 -1.3218 5.77943
rclavicle -1.71452e-015 2.34566e-014
rhumerus -32.25 -9.85197 -75.0788
rradius 43.8623
rwrist -16.1299
rhand -10.9866 20.6137
rfingers 7.12502
rthumb 15.0334 -8.8205
lclavicle -1.71452e-015 2.34566e-014
lhumerus -11.9043 15.5938 81.9748
lradius 29.1778
lwrist -2.67767
lhand -8.98605 30.5994
lfingers 7.12502
lthumb 16.9599 59.879
rfemur -50.3897 -2.44723 17.2293
rtibia 63.7416
rfoot -18.4551 -7.45935
rtoes 8.21995
lfemur -17.2498 -5.25002 -27.4534
ltibia 39.3463
lfoot -20.2664 0.059335
ltoes -16.8673
209
root 10.0379 17.5004 -26.3058 19.4665 -37.0482 -0.0509849
lowerback 10.6559 -0.0706245 -8.43349
upperback 0.56882 -0.977739 2.58372
thorax -5.20952 -0.255606 7.68331
lowerneck -13.8357 -2.27365 -11.3106
upperneck 20.1541 -3.34706 12.2028
head 8.95899 -1.22524 5.73202
rclavicle 8.68441e-015 -5.31749e-015
rhumerus -32.4168 -9.74181 -74.8319
rradius 43.8868
rwrist -15.9509
rhand -10.2785 21.3933
rfingers 7.12502
rthumb 15.7155 -7.98857
lclavicle 8.68441e-015 -5.31749e-015
lhumerus -11.5622 16.2762 81.7476
lradius 29.3864
lwrist -4.46879
lhand -6.41751 31.7491
lfingers 7.12502
lthumb 19.431 60.7982
rfemur -51.1646 -2.22114 17.4865
rtibia 63.473
rfoot -18.853 -6.67421
rtoes 8.13023
lfemur -16.2957 -5.00355 -27.7855
ltibia 38.9137
lfoot -20.3514 0.720217
ltoes -19.2691
210
root 9.99044 17.4662 -26.1755 19.8467 -36.6232 0.185466
lowerback 10.8311 -0.371912 -8.63421
upperback 0.312886 -1.42138 2.62083
thorax -5.48979 -0.44361 7.9158
lowerneck -14.0757 -2.17145 -11.0739
upperneck 20.4248 -3.2354 12.0898
head 9.07562 -1.16091 5.67461
rclavicle 5.97251e-014 9.78859e-015
rhumerus -32.7175 -9.44638 -74.8654
rradius 44.2389
rwrist -16.3381
rhand -10.2934 21.2592
rfingers 7.12502
rthumb 15.7011 -8.12381
lclavicle 5.97251e-014 9.78859e-015
lhumerus -11.2242 16.2805 81.4323
lradius 29.1722
lwrist -4.50203
lhand -6.07464 31.8261
lfingers 7.12502
lthumb 19.7606 60.8416
rfemur -52.6773 -2.63313 17.7346
rtibia 63.3579
rfoot -19.3146 -8.62033
rtoes 3.55965
lfemur -16.2099 -4.86047 -27.922
ltibia 38.611
lfoot -20.4315 0.221069
ltoes -19.603
211
root 9.93873 17.4344 -26.0219 20.0163 -36.6363 0.170327
lowerback 11.3274 -0.530746 -8.84662
upperback 0.0591357 -1.70384 2.71766
thorax -5.97721 -0.537744 8.21392
lowerneck -15.0209 -2.07263 -10.6503
upperneck 21.5258 -3.12776 11.7564
head 9.60964 -1.09055 5.54206
rclavicle 8.71919e-014 9.44227e-016
rhumerus -33.06 -9.29629 -74.6838
rradius 44.2663
rwrist -15.7065
rhand -9.9915 21.5286
rfingers 7.12502
rthumb 15.9918 -7.83132
lclavicle 8.71919e-014 9.44227e-016
lhumerus -11.4522 16.3607 81.1006
lradius 29.2985
lwrist -4.29299
lhand -6.60371 31.3045
lfingers 7.12502
lthumb 19.2519 60.3716
rfemur -53.7453 -2.62279 17.9618
rtibia 63.2834
rfoot -19.7145 -10.1285
rtoes -0.8273
lfemur -15.4995 -4.75371 -28.1299
ltibia 38.1073
lfoot -20.2683 -0.198144
ltoes -15.8279
212
root 9.88254 17.3777 -25.8685 19.8343 -35.9189 0.425313
lowerback 11.7039 -0.820336 -8.69441
upperback 0.144085 -2.1019 2.6697
thorax -6.02219 -0.739654 8.14748
lowerneck -14.5627 -2.04036 -10.7476
upperneck 20.9848 -3.12103 12.0257
head 9.33844 -1.0783 5.63306
rclavicle 1.24489e-013 2.29596e-014
rhumerus -32.9862 -9.89694 -74.6409
rradius 44.2189
rwrist -15.01
rhand -9.64291 21.9333
rfingers 7.12502
rthumb 16.3275 -7.3994
lclavicle 1.24489e-013 2.29596e-014
lhumerus -10.9714 15.8934 80.8824
lradius 29.3959
lwrist -4.28684
lhand -6.92989 31.1045
lfingers 7.12502
lthumb 18.9382 60.2026
rfemur -54.614 -3.26417 18.1675
rtibia 63.404
rfoot -20.1488 -10.87
rtoes -3.23617
lfemur -14.4725 -5.35304 -28.3072
ltibia 37.6136
lfoot -19.7251 -1.41375
ltoes -16.3536
213
root 9.82954 17.3333 -25.6696 18.8304 -34.2657 0.902349
lowerback 12.8362 -1.49772 -8.08792
upperback 0.279185 -3.00296 2.70813
thorax -6.35616 -1.18581 8.03697
lowerneck -14.3008 -1.94311 -10.7651
upperneck 20.7111 -2.97393 11.9897
head 9.17451 -1.02141 5.62775
rclavicle 3.23771e-014 -1.63997e-015
rhumerus -33.1525 -9.72595 -74.5463
rradius 44.4275
rwrist -14.8554
rhand -9.3096 21.9912
rfingers 7.12502
rthumb 16.6484 -7.31476
lclavicle 3.23771e-014 -1.63997e-015
lhumerus -10.8647 15.9691 80.6676
lradius 29.5606
lwrist -4.45806
lhand -8.2255 30.3118
lfingers 7.12502
lthumb 17.6918 59.5269
rfemur -54.3569 -4.89536 18.2898
rtibia 63.4792
rfoot -20.9504 -10.4848
rtoes -2.80135
lfemur -12.3983 -6.50241 -28.5186
ltibia 36.9414
lfoot -20.08 -0.863998
ltoes -16.8668
214
root 9.77743 17.3032 -25.4977 18.1698 -31.8239 1.53833
lowerback 13.8389 -2.40748 -7.34319
upperback 0.33038 -4.1649 2.74133
thorax -6.68287 -1.76003 7.90339
lowerneck -14.3125 -1.913 -10.764
upperneck 20.4648 -2.94948 12.1626
head 9.09117 -0.991129 5.68368
rclavicle -7.71285e-014 2.84262e-014
rhumerus -33.319 -9.62107 -74.514
rradius 44.8464
rwrist -14.9155
rhand -9.77312 21.6544
rfingers 7.12502
rthumb 16.2021 -7.68852
lclavicle -7.71285e-014 2.84262e-014
lhumerus -10.5219 15.9032 80.5175
lradius 29.6786
lwrist -4.21837
lhand -9.61957 29.6277
lfingers 7.12502
lthumb 16.35 58.9585
rfemur -54.5329 -7.00347 18.4558
rtibia 63.6502
rfoot -21.6203 -10.5926
rtoes -4.12869
lfemur -11.04 -7.70456 -28.4173
ltibia 36.3929
lfoot -19.595 -2.59642
ltoes -12.2376
215
root 9.71374 17.2759 -25.3186 18.3554 -32.0971 1.42727
lowerback 13.8647 -2.38794 -7.48509
upperback 0.384704 -4.15872 2.79203
thorax -6.62603 -1.75701 8.03852
lowerneck -14.327 -1.85081 -10.7095
upperneck 20.2847 -2.87432 12.2315
head 9.02234 -0.943861 5.70101
rclavicle 8.25453e-014 -4.79071e-014
rhumerus -33.548 -9.50952 -74.3307
rradius 45.3137
rwrist -14.433
rhand -10.98 20.8037
rfingers 7.12502
rthumb 15.0398 -8.63002
lclavicle 8.25453e-014 -4.79071e-014
lhumerus -10.2487 15.838 80.4102
lradius 29.7487
lwrist -3.64461
lhand -8.61849 30.7435
lfingers 7.12502
lthumb 17.3137 59.9923
rfemur -55.4536 -6.74749 18.6347
rtibia 63.6473
rfoot -21.6744 -9.89213
rtoes -4.57629
lfemur -10.6597 -7.80361 -28.549
ltibia 35.9871
lfoot -18.8459 -4.02356
ltoes 8.69517
216
root 9.63922 17.1742 -25.2014 20.2683 -35.8978 0.582755
lowerback 12.2642 -1.24655 -9.29968
upperback 0.0772415 -2.78848 2.92385
thorax -6.23054 -1.03948 8.91727
lowerneck -14.1915 -1.73464 -10.7812
upperneck 20.2366 -2.68179 12.1349
head 8.95433 -0.873085 5.69795
rclavicle 3.95581e-014 -2.22639e-014
rhumerus -33.8662 -8.94757 -74.0897
rradius 45.9077
rwrist -14.3675
rhand -11.684 19.8927
rfingers 7.12502
rthumb 14.3615 -9.59053
lclavicle 3.95581e-014 -2.22639e-014
lhumerus -10.218 16.2281 80.273
lradius 29.8173
lwrist -3.50073
lhand -7.42793 31.541
lfingers 7.12502
lthumb 18.4592 60.6852
rfemur -58.7447 -3.3805 18.6575
rtibia 63.856
rfoot -20.448 -6.25298
rtoes 3.55589
lfemur -11.5354 -5.02716 -29.2891
ltibia 35.8328
lfoot -19.3632 -2.05918
ltoes -7.93809
